<svg xmlns="http://www.w3.org/2000/svg" width="900" height="900" viewBox="0 0 900 900">
  <defs>
    <filter id="paper" x="-5%" y="-5%" width="110%" height="110%">
      <feTurbulence type="fractalNoise" baseFrequency="0.018" numOctaves="3" seed="11"/>
      <feColorMatrix type="saturate" values="0"/>
      <feComponentTransfer>
        <feFuncA type="table" tableValues="0 0.08"/>
      </feComponentTransfer>
      <feBlend in="SourceGraphic" mode="multiply"/>
    </filter>
    <filter id="softShadow" x="-40%" y="-40%" width="180%" height="180%">
      <feDropShadow dx="0" dy="5" stdDeviation="5" flood-color="#8a7b64" flood-opacity="0.2"/>
    </filter>
    <marker id="arrowRed" markerWidth="12" markerHeight="12" refX="10" refY="6" orient="auto" markerUnits="strokeWidth">
      <path d="M2,2 L10,6 L2,10 Z" fill="#d85a4a"/>
    </marker>
    <marker id="arrowBlue" markerWidth="12" markerHeight="12" refX="10" refY="6" orient="auto" markerUnits="strokeWidth">
      <path d="M2,2 L10,6 L2,10 Z" fill="#367dcc"/>
    </marker>
    <marker id="arrowGreen" markerWidth="12" markerHeight="12" refX="10" refY="6" orient="auto" markerUnits="strokeWidth">
      <path d="M2,2 L10,6 L2,10 Z" fill="#4a9b62"/>
    </marker>
    <marker id="arrowOrange" markerWidth="12" markerHeight="12" refX="10" refY="6" orient="auto" markerUnits="strokeWidth">
      <path d="M2,2 L10,6 L2,10 Z" fill="#de8b31"/>
    </marker>
    <style>
      .jpko {
        font-family: "Hiragino Sans", "Hiragino Kaku Gothic ProN", "YuGothic", "Apple SD Gothic Neo", "Arial Unicode MS", sans-serif;
      }
      .label {
        font-size: 19px;
        font-weight: 700;
        fill: #34403b;
        paint-order: stroke;
        stroke: #fff8ea;
        stroke-width: 5px;
        stroke-linejoin: round;
      }
      .small {
        font-size: 16px;
        font-weight: 700;
        fill: #3f4743;
        paint-order: stroke;
        stroke: #fffaf0;
        stroke-width: 4px;
        stroke-linejoin: round;
      }
      .bay {
        font-size: 26px;
        font-weight: 800;
        fill: #447f9c;
        opacity: 0.88;
      }
      .route {
        fill: none;
        stroke-linecap: round;
        stroke-linejoin: round;
        stroke-width: 6;
        stroke-dasharray: 2 14;
      }
      .pinText {
        font-family: Arial, sans-serif;
        font-size: 17px;
        font-weight: 800;
        fill: white;
      }
    </style>
  </defs>

  <rect width="900" height="900" fill="#fbf2dd"/>
  <g filter="url(#paper)">
    <path d="M42 96 C139 54 255 68 326 104 C410 146 488 110 586 94 C698 76 794 112 846 190 C900 272 849 374 824 461 C797 553 827 636 780 732 C731 832 606 855 502 834 C415 816 362 762 278 763 C180 764 83 728 54 632 C26 538 87 466 76 374 C65 270 -47 162 42 96Z" fill="#e7dca5"/>
    <path d="M90 154 C180 111 280 116 347 155 C427 203 513 164 589 135 C690 96 782 145 814 229 C846 313 793 390 760 462 C726 535 772 633 720 709 C663 791 553 797 467 765 C388 736 337 703 247 715 C153 728 82 674 74 585 C66 494 126 428 119 344 C113 265 20 197 90 154Z" fill="#efe5b5"/>
    <path d="M650 476 C724 492 805 529 900 577 L900 900 L507 900 C533 811 570 749 614 691 C667 620 625 547 650 476Z" fill="#a9d8df"/>
    <path d="M706 532 C763 552 822 589 900 637 L900 900 L616 900 C632 814 663 746 714 686 C752 641 714 584 706 532Z" fill="#8fcbd8" opacity="0.72"/>
    <path d="M140 703 C190 683 234 686 278 706" stroke="#9abf91" stroke-width="18" stroke-linecap="round" opacity="0.55"/>
    <path d="M258 182 C312 163 370 168 425 190" stroke="#9abf91" stroke-width="16" stroke-linecap="round" opacity="0.5"/>
    <path d="M505 282 C572 270 634 292 681 328" stroke="#d7c483" stroke-width="18" stroke-linecap="round" opacity="0.5"/>
  </g>

  <text x="688" y="812" class="jpko bay">東京湾 / Tokyo Bay</text>

  <path class="route" d="M770 288 C681 323 555 383 438 454" stroke="#d85a4a" marker-end="url(#arrowRed)"/>
  <path class="route" d="M413 438 C400 389 394 330 392 275" stroke="#367dcc" marker-end="url(#arrowBlue)"/>
  <path class="route" d="M414 276 C430 331 434 386 426 444" stroke="#367dcc" marker-end="url(#arrowBlue)"/>
  <path class="route" d="M439 478 C492 503 560 536 610 572" stroke="#4a9b62" marker-end="url(#arrowGreen)"/>
  <path class="route" d="M630 616 C646 645 657 681 662 706" stroke="#de8b31" marker-end="url(#arrowOrange)"/>

  <text x="579" y="348" class="jpko small">N'EX 22号</text>
  <text x="244" y="354" class="jpko small">JR 京浜東北線 20分</text>
  <text x="451" y="361" class="jpko small">京浜東北線 귀로</text>
  <text x="503" y="533" class="jpko small">JR 京葉線 15分</text>
  <text x="666" y="663" class="jpko small">호텔 셔틀 15分</text>

  <g filter="url(#softShadow)">
    <g transform="translate(770 288)">
      <path d="M0 -38 C24 -38 42 -19 42 4 C42 33 0 66 0 66 C0 66 -42 33 -42 4 C-42 -19 -24 -38 0 -38Z" fill="#d85a4a"/>
      <circle cx="0" cy="2" r="24" fill="#fff6dc"/>
      <path d="M-18 0 L18 -8 L23 -3 L5 6 L10 19 L4 21 L-6 10 L-20 15 L-24 10 L-11 2 L-22 -8 L-17 -12 Z" fill="#d85a4a"/>
      <circle cx="-27" cy="-28" r="12" fill="#d85a4a"/>
      <text x="-32" y="-22" class="pinText">1</text>
    </g>
    <g transform="translate(420 470)">
      <path d="M0 -38 C24 -38 42 -19 42 4 C42 33 0 66 0 66 C0 66 -42 33 -42 4 C-42 -19 -24 -38 0 -38Z" fill="#5a89d6"/>
      <circle cx="0" cy="2" r="24" fill="#fff6dc"/>
      <rect x="-15" y="-13" width="30" height="26" rx="5" fill="#5a89d6"/>
      <rect x="-10" y="-8" width="20" height="9" rx="2" fill="#fff6dc"/>
      <circle cx="-8" cy="9" r="3" fill="#fff6dc"/>
      <circle cx="8" cy="9" r="3" fill="#fff6dc"/>
      <circle cx="-27" cy="-28" r="12" fill="#5a89d6"/>
      <text x="-32" y="-22" class="pinText">2</text>
    </g>
    <g transform="translate(392 250)">
      <path d="M0 -38 C24 -38 42 -19 42 4 C42 33 0 66 0 66 C0 66 -42 33 -42 4 C-42 -19 -24 -38 0 -38Z" fill="#5aa36a"/>
      <circle cx="0" cy="2" r="24" fill="#fff6dc"/>
      <circle cx="-8" cy="-4" r="10" fill="#5aa36a"/>
      <circle cx="7" cy="-8" r="12" fill="#5aa36a"/>
      <circle cx="8" cy="5" r="10" fill="#5aa36a"/>
      <rect x="-3" y="4" width="7" height="17" rx="2" fill="#8a6645"/>
      <circle cx="-27" cy="-28" r="12" fill="#5aa36a"/>
      <text x="-32" y="-22" class="pinText">3</text>
    </g>
    <g transform="translate(620 590)">
      <path d="M0 -38 C24 -38 42 -19 42 4 C42 33 0 66 0 66 C0 66 -42 33 -42 4 C-42 -19 -24 -38 0 -38Z" fill="#d6a33f"/>
      <circle cx="0" cy="2" r="24" fill="#fff6dc"/>
      <path d="M0 -18 L6 -5 L20 -4 L9 5 L13 18 L0 10 L-13 18 L-9 5 L-20 -4 L-6 -5 Z" fill="#d6a33f"/>
      <circle cx="-27" cy="-28" r="12" fill="#d6a33f"/>
      <text x="-32" y="-22" class="pinText">4</text>
    </g>
    <g transform="translate(665 728)">
      <path d="M0 -38 C24 -38 42 -19 42 4 C42 33 0 66 0 66 C0 66 -42 33 -42 4 C-42 -19 -24 -38 0 -38Z" fill="#de8b31"/>
      <circle cx="0" cy="2" r="24" fill="#fff6dc"/>
      <path d="M-18 2 L0 -14 L18 2 L14 2 L14 18 L4 18 L4 7 L-4 7 L-4 18 L-14 18 L-14 2 Z" fill="#de8b31"/>
      <circle cx="-27" cy="-28" r="12" fill="#de8b31"/>
      <text x="-32" y="-22" class="pinText">5</text>
    </g>
  </g>

  <text x="586" y="241" class="jpko label">나리타공항 T2 (成田空港 T2)</text>
  <text x="256" y="523" class="jpko label">도쿄역 (東京駅)</text>
  <text x="154" y="214" class="jpko label">오지·아스카야마 공원 (王子・飛鳥山公園)</text>
  <text x="653" y="588" class="jpko label">마이하마 (舞浜)</text>
  <text x="354" y="806" class="jpko label">호텔 (三井ガーデンホテル プラナ東京ベイ)</text>
</svg>
